<svg width="288" height="138" viewBox="0 0 288 138" fill="none" xmlns="http://www.w3.org/2000/svg">
<path d="M1.15761 0.394146H15.94L48.2827 64.9803L40.8419 79.7627L1.15761 0.394146ZM76.0415 13.49V66.4685L62.8465 79.7627V0.394146L76.0415 13.49ZM112.615 53.3727L106.067 66.4685L99.3212 79.7627H84.638L124.322 0.394146L150.811 53.3727H135.93L124.322 30.0581L112.615 53.3727ZM157.359 66.5677L164.007 79.7627H149.224L142.676 66.5677H157.359ZM185.485 46.7255H165.742C159.293 46.7255 153.837 44.4437 149.372 39.9792C144.908 35.4155 142.626 29.9589 142.626 23.5102C142.626 17.1607 144.908 11.8034 149.372 7.23968C153.837 2.67599 159.293 0.394146 165.742 0.394146V13.6884C164.353 13.6884 163.063 13.8868 161.873 14.3828C160.583 14.8789 159.591 15.5734 158.599 16.5655C157.706 17.4584 157.011 18.5497 156.515 19.7402C156.019 20.9308 155.821 22.2205 155.821 23.5102C155.821 26.2881 156.714 28.57 158.599 30.5542C160.583 32.5384 162.865 33.5305 165.742 33.5305H185.485C191.934 33.5305 197.39 35.8124 201.855 40.2768C206.418 44.8405 208.7 50.2971 208.7 56.6466C208.7 62.9961 206.418 68.4527 201.855 73.0164C197.39 77.4808 191.934 79.7627 185.485 79.7627V66.4685C186.874 66.4685 188.164 66.27 189.354 65.774C190.644 65.2779 191.735 64.5835 192.628 63.6906C193.521 62.7977 194.215 61.8056 194.711 60.5158C195.208 59.3253 195.505 58.0356 195.505 56.6466C195.505 53.9679 194.414 51.6861 192.529 49.7019C190.545 47.7176 188.263 46.7255 185.485 46.7255ZM264.7 64.1866C268.073 62.5992 271.049 60.4166 273.629 57.5395L286.824 61.9048C285.038 64.5835 282.955 67.0637 280.474 69.2464C278.093 71.429 275.514 73.314 272.637 74.9014C269.859 76.4887 266.883 77.6793 263.609 78.473C260.434 79.3659 257.16 79.7627 253.688 79.7627C242.675 79.7627 233.449 75.7943 225.71 68.0558C217.972 60.3174 214.003 51.0908 214.003 40.0784C214.003 29.1652 217.872 19.8394 225.71 12.101C233.349 4.26336 242.675 0.394146 253.688 0.394146C259.144 0.394146 264.303 1.38625 269.164 3.46967C273.927 5.5531 278.193 8.43021 281.863 12.101L272.339 21.4268C267.18 16.2679 261.029 13.6884 253.688 13.6884C246.445 13.6884 240.195 16.1686 234.937 21.4268C229.778 26.5858 227.297 32.836 227.297 40.0784C227.297 47.3208 229.778 53.6703 234.937 58.8292C240.096 63.9882 246.445 66.4685 253.688 66.4685C257.656 66.4685 261.327 65.6748 264.7 64.1866ZM253.688 46.7255V33.5305H286.824L273.629 46.7255H253.688Z" fill="white"/>
<path d="M88.7456 137.507C86.3646 137.507 84.0827 137.16 81.9001 136.465C79.7175 135.771 77.9482 134.779 76.5923 133.489L78.3781 130.81C79.6017 131.902 81.1064 132.762 82.8922 133.39C84.7111 134.051 86.6292 134.382 88.6464 134.382C91.9535 134.382 94.3841 133.605 95.9384 132.051C97.4927 130.529 98.2699 128.148 98.2699 124.907V118.409L98.7659 113.945L98.4187 109.48V101.593H101.792V124.461C101.792 128.959 100.684 132.249 98.4683 134.332C96.2857 136.449 93.0448 137.507 88.7456 137.507ZM88.1008 126.644C85.6205 126.644 83.3883 126.115 81.4041 125.056C79.4198 123.965 77.849 122.46 76.6915 120.542C75.5672 118.624 75.005 116.425 75.005 113.945C75.005 111.464 75.5672 109.282 76.6915 107.397C77.849 105.479 79.4198 103.991 81.4041 102.932C83.3883 101.874 85.6205 101.345 88.1008 101.345C90.4157 101.345 92.4991 101.824 94.3511 102.783C96.203 103.743 97.6746 105.165 98.7659 107.05C99.8572 108.935 100.403 111.233 100.403 113.945C100.403 116.656 99.8572 118.955 98.7659 120.84C97.6746 122.725 96.203 124.163 94.3511 125.155C92.4991 126.148 90.4157 126.644 88.1008 126.644ZM88.448 123.518C90.3661 123.518 92.0692 123.122 93.5574 122.328C95.0455 121.501 96.2195 120.377 97.0793 118.955C97.9392 117.5 98.3691 115.83 98.3691 113.945C98.3691 112.06 97.9392 110.406 97.0793 108.984C96.2195 107.562 95.0455 106.454 93.5574 105.661C92.0692 104.834 90.3661 104.42 88.448 104.42C86.563 104.42 84.8599 104.834 83.3387 105.661C81.8505 106.454 80.6765 107.562 79.8167 108.984C78.9899 110.406 78.5766 112.06 78.5766 113.945C78.5766 115.83 78.9899 117.5 79.8167 118.955C80.6765 120.377 81.8505 121.501 83.3387 122.328C84.8599 123.122 86.563 123.518 88.448 123.518ZM113.081 127.636V101.593H116.454V108.686L116.106 107.446C116.834 105.462 118.058 103.957 119.777 102.932C121.497 101.874 123.63 101.345 126.176 101.345V104.768C126.044 104.768 125.912 104.768 125.78 104.768C125.647 104.735 125.515 104.718 125.383 104.718C122.638 104.718 120.488 105.561 118.934 107.248C117.38 108.901 116.603 111.266 116.603 114.342V127.636H113.081ZM144.464 127.884C141.951 127.884 139.686 127.322 137.669 126.197C135.684 125.04 134.113 123.469 132.956 121.485C131.799 119.467 131.22 117.169 131.22 114.59C131.22 111.977 131.799 109.679 132.956 107.694C134.113 105.71 135.684 104.156 137.669 103.031C139.653 101.907 141.918 101.345 144.464 101.345C147.044 101.345 149.326 101.907 151.31 103.031C153.327 104.156 154.898 105.71 156.023 107.694C157.18 109.679 157.759 111.977 157.759 114.59C157.759 117.169 157.18 119.467 156.023 121.485C154.898 123.469 153.327 125.04 151.31 126.197C149.293 127.322 147.011 127.884 144.464 127.884ZM144.464 124.759C146.349 124.759 148.02 124.345 149.475 123.518C150.93 122.659 152.071 121.468 152.897 119.947C153.757 118.393 154.187 116.607 154.187 114.59C154.187 112.539 153.757 110.753 152.897 109.232C152.071 107.711 150.93 106.537 149.475 105.71C148.02 104.85 146.366 104.42 144.514 104.42C142.662 104.42 141.009 104.85 139.554 105.71C138.098 106.537 136.941 107.711 136.081 109.232C135.221 110.753 134.791 112.539 134.791 114.59C134.791 116.607 135.221 118.393 136.081 119.947C136.941 121.468 138.098 122.659 139.554 123.518C141.009 124.345 142.646 124.759 144.464 124.759ZM177.202 127.884C174.986 127.884 173.051 127.47 171.398 126.644C169.744 125.817 168.455 124.577 167.529 122.923C166.636 121.27 166.189 119.203 166.189 116.723V101.593H169.711V116.326C169.711 119.104 170.389 121.204 171.745 122.626C173.134 124.015 175.069 124.709 177.549 124.709C179.368 124.709 180.939 124.345 182.261 123.618C183.617 122.857 184.642 121.766 185.337 120.344C186.064 118.922 186.428 117.219 186.428 115.234V101.593H189.95V127.636H186.577V120.493L187.123 121.782C186.296 123.7 185.006 125.205 183.254 126.296C181.534 127.355 179.517 127.884 177.202 127.884ZM214.697 127.884C212.448 127.884 210.415 127.371 208.596 126.346C206.777 125.288 205.322 123.783 204.23 121.832C203.172 119.848 202.643 117.434 202.643 114.59C202.643 111.745 203.172 109.348 204.23 107.397C205.289 105.413 206.727 103.908 208.546 102.883C210.365 101.857 212.415 101.345 214.697 101.345C217.177 101.345 219.393 101.907 221.344 103.031C223.328 104.123 224.883 105.677 226.007 107.694C227.132 109.679 227.694 111.977 227.694 114.59C227.694 117.235 227.132 119.55 226.007 121.534C224.883 123.518 223.328 125.073 221.344 126.197C219.393 127.322 217.177 127.884 214.697 127.884ZM201.254 137.259V101.593H204.627V109.431L204.28 114.639L204.776 119.897V137.259H201.254ZM214.449 124.759C216.301 124.759 217.955 124.345 219.41 123.518C220.865 122.659 222.022 121.468 222.882 119.947C223.742 118.393 224.172 116.607 224.172 114.59C224.172 112.572 223.742 110.803 222.882 109.282C222.022 107.761 220.865 106.57 219.41 105.71C217.955 104.85 216.301 104.42 214.449 104.42C212.597 104.42 210.927 104.85 209.439 105.71C207.984 106.57 206.826 107.761 205.967 109.282C205.14 110.803 204.726 112.572 204.726 114.59C204.726 116.607 205.14 118.393 205.967 119.947C206.826 121.468 207.984 122.659 209.439 123.518C210.927 124.345 212.597 124.759 214.449 124.759Z" fill="white"/>
</svg>
