<svg width="300" height="303" viewBox="0 0 300 303" fill="none" xmlns="http://www.w3.org/2000/svg">
<circle cx="150" cy="100" r="83.3333" stroke="white" stroke-width="5"/>
<path d="M150 141.667V145.833V150" stroke="white" stroke-width="5" stroke-linecap="round"/>
<path d="M150 50V54.1667V58.3333" stroke="white" stroke-width="5" stroke-linecap="round"/>
<path d="M175 79.1663C175 67.6604 163.807 58.333 150 58.333C136.193 58.333 125 67.6604 125 79.1663C125 90.6723 136.193 99.9997 150 99.9997C163.807 99.9997 175 109.327 175 120.833C175 132.339 163.807 141.666 150 141.666C136.193 141.666 125 132.339 125 120.833" stroke="white" stroke-width="5" stroke-linecap="round"/>
<path d="M62.5 279.855H90.7492C103.385 279.855 116.157 281.171 128.454 283.705C150.207 288.186 173.111 288.729 195.087 285.172C205.922 283.418 216.576 280.736 226.218 276.082C234.924 271.88 245.587 265.958 252.749 259.324C259.901 252.7 267.35 241.859 272.637 233.384C277.17 226.118 274.977 217.202 267.807 211.788C259.841 205.774 248.021 205.775 240.058 211.791L217.468 228.855C208.713 235.469 199.15 241.557 187.757 243.374C186.388 243.592 184.952 243.791 183.454 243.965M183.454 243.965C183.004 244.017 182.547 244.067 182.085 244.115M183.454 243.965C185.277 243.574 187.087 242.451 188.784 240.969C196.824 233.951 197.333 222.125 190.357 214.289C188.738 212.471 186.844 210.955 184.738 209.699C149.772 188.843 95.3677 204.728 62.5 228.036M183.454 243.965C182.998 244.063 182.541 244.115 182.085 244.115M182.085 244.115C175.543 244.786 167.89 244.96 159.397 244.158" stroke="white" stroke-width="5" stroke-linecap="round"/>
<rect x="25" y="200" width="37.5" height="100" rx="3" stroke="white" stroke-width="5"/>
</svg>
